<svg width="42" height="85" fill="none" xmlns="http://www.w3.org/2000/svg"><path d="M36.208 3.835l.01-.032A2.88 2.88 0 0034.442.155a2.846 2.846 0 00-3.62 1.792l2.7.928-2.7-.927-.014.042-.04.118-.15.452c-.13.395-.318.975-.555 1.72a295.114 295.114 0 00-1.923 6.298c-1.561 5.316-3.576 12.677-5.39 20.854-1.812 8.17-3.434 17.202-4.192 25.848-.474 5.408-.619 10.748-.232 15.675-.545-.69-1.112-1.402-1.694-2.125-2.027-2.515-4.252-5.18-6.343-7.475-2.04-2.24-4.118-4.316-5.825-5.495a2.837 2.837 0 00-3.964.746 2.889 2.889 0 00.741 3.996c1.119.772 2.815 2.409 4.847 4.64 1.982 2.176 4.126 4.741 6.117 7.212a305.515 305.515 0 017.106 9.189l.109.147.035.048a2.842 2.842 0 002.595 1.146 2.854 2.854 0 002.294-1.676l.005-.011.019-.04.075-.168.3-.653a183.424 183.424 0 015.163-10.238c3.351-6.14 7.502-12.776 11.156-16.107a2.89 2.89 0 00.203-4.06 2.836 2.836 0 00-4.028-.203c-4.45 4.056-9 11.503-12.327 17.6-.339.62-.667 1.233-.984 1.83-.24-4.14-.106-8.696.313-13.472.728-8.308 2.296-17.075 4.076-25.1 1.778-8.017 3.758-15.248 5.293-20.476a287.698 287.698 0 011.885-6.174 185.366 185.366 0 01.68-2.095l.036-.106z" fill="url(#paint0_linear_24_165)"/><defs><linearGradient id="paint0_linear_24_165" x1="20.861" y1="-4.598" x2="20.861" y2="94.156" gradientUnits="userSpaceOnUse"><stop stop-color="#FE8A27"/><stop offset="1" stop-color="#FEF4A2"/></linearGradient></defs></svg>