<svg width="502" height="148" fill="none" xmlns="http://www.w3.org/2000/svg"><path d="M59.333 68.2L8.733 115v29h112.2v-36.6H73.744l19.989-18.2c6.8-6.133 11.933-11.667 15.4-16.6 3.467-5.067 5.733-9.867 6.8-14.4 1.2-4.533 1.8-9.067 1.8-13.6 0-8.933-2.4-16.667-7.2-23.2-4.8-6.533-11.467-11.6-20-15.2C81.999 2.6 72.199.8 61.133.8c-15.067 0-27.667 3-37.8 9C13.2 15.8 5.6 23.6.533 33.2l35.6 17.8c2.133-4.267 5.066-7.467 8.8-9.6 3.733-2.267 7.666-3.4 11.8-3.4 4.533 0 7.933 1 10.2 3 2.266 1.867 3.4 4.533 3.4 8 0 1.6-.267 3.333-.8 5.2-.534 1.733-1.6 3.733-3.2 6-1.467 2.267-3.8 4.933-7 8z" fill="url(#paint0_linear_27_1808)"/><path fill-rule="evenodd" clip-rule="evenodd" d="M161.013 138.6c9.6 5.733 20.6 8.6 33 8.6 12.4 0 23.333-2.867 32.8-8.6 9.6-5.733 17.066-14.067 22.4-25 5.466-10.933 8.2-24.133 8.2-39.6 0-15.467-2.734-28.667-8.2-39.6-5.334-10.933-12.8-19.267-22.4-25-9.467-5.733-20.4-8.6-32.8-8.6-12.4 0-23.4 2.867-33 8.6-9.467 5.733-16.934 14.067-22.4 25-5.334 10.933-8 24.133-8 39.6 0 15.467 2.666 28.667 8 39.6 5.466 10.933 12.933 19.267 22.4 25zm41.2-32.4c-2.4 2.133-5.134 3.2-8.2 3.2-3.067 0-5.8-1.067-8.2-3.2-2.4-2.133-4.334-5.8-5.8-11-1.334-5.2-2-12.267-2-21.2 0-9.067.666-16.133 2-21.2 1.466-5.2 3.4-8.867 5.8-11 2.4-2.133 5.133-3.2 8.2-3.2 3.066 0 5.8 1.067 8.2 3.2 2.4 2.133 4.266 5.8 5.6 11 1.466 5.067 2.2 12.133 2.2 21.2 0 8.933-.734 16-2.2 21.2-1.334 5.2-3.2 8.867-5.6 11z" fill="url(#paint1_linear_27_1808)"/><path d="M351.936 89.2l-19.988 18.2h47.188V144h-112.2v-29l50.6-46.8c3.2-3.067 5.533-5.733 7-8 1.6-2.267 2.667-4.267 3.2-6 .533-1.867.8-3.6.8-5.2 0-3.467-1.133-6.133-3.4-8-2.267-2-5.667-3-10.2-3-4.133 0-8.067 1.133-11.8 3.4-3.733 2.133-6.667 5.333-8.8 9.6l-35.6-17.8c5.067-9.6 12.667-17.4 22.8-23.4 10.133-6 22.733-9 37.8-9 11.067 0 20.867 1.8 29.4 5.4 8.533 3.6 15.2 8.667 20 15.2 4.8 6.533 7.2 14.267 7.2 23.2 0 4.533-.6 9.067-1.8 13.6-1.067 4.533-3.333 9.333-6.8 14.4-3.467 4.933-8.6 10.467-15.4 16.6z" fill="url(#paint2_linear_27_1808)"/><path d="M407.816 144c9.866 2.133 19.6 3.2 29.2 3.2 14.933 0 27.066-2.333 36.4-7 9.466-4.667 16.4-10.667 20.8-18 4.533-7.333 6.8-15 6.8-23 0-12.4-4.6-22.533-13.8-30.4-5.196-4.443-11.732-7.631-19.608-9.565L493.416 33V4h-104.4v35.6h50.057l-20.657 21v29h18.6c6 0 10.266.867 12.8 2.6 2.533 1.6 3.8 3.933 3.8 7 0 3.6-1.734 6.333-5.2 8.2-3.334 1.733-7.667 2.6-13 2.6-5.867 0-12.134-.8-18.8-2.4-6.534-1.733-12.8-4.333-18.8-7.8l-16 34.8c7.466 4.133 16.133 7.267 26 9.4z" fill="url(#paint3_linear_27_1808)"/><defs><linearGradient id="paint0_linear_27_1808" x1="250.774" y1=".8" x2="250.774" y2="147.2" gradientUnits="userSpaceOnUse"><stop stop-color="#008787"/><stop offset=".583" stop-color="#025858"/><stop offset="1" stop-color="#005788" stop-opacity=".48"/></linearGradient><linearGradient id="paint1_linear_27_1808" x1="250.774" y1=".8" x2="250.774" y2="147.2" gradientUnits="userSpaceOnUse"><stop stop-color="#008787"/><stop offset=".583" stop-color="#025858"/><stop offset="1" stop-color="#005788" stop-opacity=".48"/></linearGradient><linearGradient id="paint2_linear_27_1808" x1="250.774" y1=".8" x2="250.774" y2="147.2" gradientUnits="userSpaceOnUse"><stop stop-color="#008787"/><stop offset=".583" stop-color="#025858"/><stop offset="1" stop-color="#005788" stop-opacity=".48"/></linearGradient><linearGradient id="paint3_linear_27_1808" x1="250.774" y1=".8" x2="250.774" y2="147.2" gradientUnits="userSpaceOnUse"><stop stop-color="#008787"/><stop offset=".583" stop-color="#025858"/><stop offset="1" stop-color="#005788" stop-opacity=".48"/></linearGradient></defs></svg>