<svg width="432" height="68" fill="none" xmlns="http://www.w3.org/2000/svg"><path d="M251.413 35.768L236.053 59h-14.272V14.2h14.847v23.296L252.052 14.2h14.209V59h-14.848V35.768z" fill="url(#paint0_linear_24_153)"/><path d="M243.988 11.64c-5.077 0-8.682-.939-10.815-2.816-2.091-1.92-3.137-4.65-3.137-8.192h10.049c0 1.408.277 2.453.832 3.136.597.64 1.621.96 3.071.96 1.494 0 2.539-.32 3.136-.96.598-.683.897-1.728.897-3.136h10.048c0 3.541-1.088 6.272-3.264 8.192-2.134 1.877-5.739 2.816-10.817 2.816z" fill="url(#paint1_linear_24_153)"/><path fill-rule="evenodd" clip-rule="evenodd" d="M64.89 58.296c3.115 1.152 6.485 1.728 10.112 1.728 3.67 0 7.04-.576 10.112-1.728 3.072-1.152 5.739-2.773 8-4.864a22.447 22.447 0 005.248-7.488c1.28-2.859 1.92-5.973 1.92-9.344 0-3.413-.64-6.528-1.92-9.344a21.773 21.773 0 00-5.248-7.424c-2.261-2.133-4.928-3.776-8-4.928-3.072-1.152-6.443-1.728-10.112-1.728-3.627 0-6.997.576-10.112 1.728-3.072 1.152-5.739 2.795-8 4.928a22.544 22.544 0 00-5.312 7.424c-1.237 2.816-1.856 5.93-1.856 9.344 0 3.37.619 6.485 1.856 9.344a23.259 23.259 0 005.312 7.488c2.261 2.09 4.928 3.712 8 4.864zm14.016-11.264c-1.195.512-2.496.768-3.904.768s-2.73-.256-3.968-.768a10.142 10.142 0 01-3.2-2.176c-.896-.981-1.6-2.155-2.112-3.52-.512-1.408-.768-2.987-.768-4.736 0-1.75.256-3.307.768-4.672.512-1.408 1.216-2.581 2.112-3.52a9.67 9.67 0 013.2-2.24 10.274 10.274 0 013.968-.768c1.408 0 2.71.256 3.904.768a8.873 8.873 0 013.2 2.24c.939.939 1.664 2.112 2.176 3.52.512 1.365.768 2.923.768 4.672 0 1.75-.256 3.328-.768 4.736-.512 1.365-1.237 2.539-2.176 3.52a9.266 9.266 0 01-3.2 2.176z" fill="url(#paint2_linear_24_153)"/><path fill-rule="evenodd" clip-rule="evenodd" d="M143.158 55.48c-3.157 2.347-7.659 3.52-13.504 3.52h-23.936V14.2h22.72c5.547 0 9.835 1.024 12.864 3.072 3.072 2.048 4.608 4.928 4.608 8.64 0 3.627-1.408 6.507-4.224 8.64-.479.355-.986.68-1.521.976a14.64 14.64 0 013.377 1.712c2.901 2.005 4.352 4.928 4.352 8.768 0 3.968-1.579 7.125-4.736 9.472zm-11.456-13.184c-.597-.597-1.515-.896-2.752-.896h-8.384v7.04h8.384c1.237 0 2.155-.299 2.752-.896.64-.64.96-1.536.96-2.688 0-1.152-.32-2.005-.96-2.56zm-1.92-16.64c-.597-.597-1.536-.896-2.816-.896h-6.4v6.656h6.4c1.28 0 2.219-.277 2.816-.832.597-.555.896-1.365.896-2.432 0-1.11-.299-1.941-.896-2.496z" fill="url(#paint3_linear_24_153)"/><path fill-rule="evenodd" clip-rule="evenodd" d="M190.208 31.672c-3.072-2.475-7.338-3.712-12.799-3.712h-9.281V14.2h-14.847V59h22.207c5.931 0 10.646-1.365 14.145-4.096 3.498-2.773 5.247-6.827 5.247-12.16 0-4.95-1.557-8.64-4.672-11.072zm-12.032 15.36c-.981.939-2.218 1.408-3.711 1.408h-6.337v-9.92h6.337c1.493 0 2.73.32 3.711.96 1.025.64 1.536 1.813 1.536 3.52s-.511 3.05-1.536 4.032z" fill="url(#paint4_linear_24_153)"/><path fill-rule="evenodd" clip-rule="evenodd" d="M352.065 60.024c-3.627 0-6.998-.576-10.112-1.728-3.072-1.152-5.739-2.773-8-4.864a23.248 23.248 0 01-5.312-7.488c-1.238-2.859-1.856-5.973-1.856-9.344 0-3.413.618-6.528 1.856-9.344a22.535 22.535 0 015.312-7.424c2.261-2.133 4.928-3.776 8-4.928 3.114-1.152 6.485-1.728 10.112-1.728 3.669 0 7.04.576 10.112 1.728 3.072 1.152 5.738 2.795 8 4.928a21.786 21.786 0 015.248 7.424c1.28 2.816 1.92 5.93 1.92 9.344 0 3.37-.64 6.485-1.92 9.344a22.461 22.461 0 01-5.248 7.488c-2.262 2.09-4.928 3.712-8 4.864-3.072 1.152-6.443 1.728-10.112 1.728zm0-12.224c1.408 0 2.709-.256 3.904-.768a9.269 9.269 0 003.2-2.176c.938-.981 1.664-2.155 2.176-3.52.512-1.408.768-2.987.768-4.736 0-1.75-.256-3.307-.768-4.672-.512-1.408-1.238-2.581-2.176-3.52a8.876 8.876 0 00-3.2-2.24c-1.195-.512-2.496-.768-3.904-.768s-2.731.256-3.968.768a9.66 9.66 0 00-3.2 2.24c-.896.939-1.601 2.112-2.112 3.52-.512 1.365-.768 2.923-.768 4.672 0 1.75.256 3.328.768 4.736.511 1.365 1.216 2.539 2.112 3.52a10.13 10.13 0 003.2 2.176c1.237.512 2.56.768 3.968.768z" fill="url(#paint5_linear_24_153)"/><path fill-rule="evenodd" clip-rule="evenodd" d="M387.483 27.832l.512-13.632h37.888v33.088h5.888v20.48h-13.824V59h-25.472v8.768h-13.824v-20.48h1.28c1.408 0 2.56-.47 3.456-1.408.938-.981 1.685-2.325 2.24-4.032.554-1.75.96-3.797 1.216-6.144.298-2.39.512-5.013.64-7.872zm10.432 18.048c-.218.502-.455.971-.712 1.408h13.832V25.912h-10.304l-.128 3.2a98.943 98.943 0 01-.448 6.592c-.214 2.048-.512 3.925-.896 5.632-.342 1.707-.79 3.221-1.344 4.544z" fill="url(#paint6_linear_24_153)"/><path d="M44.253 14.2H29.149v15.872H15.197V14.2H.093V59h15.104V42.488h13.952V59h15.104V14.2z" fill="url(#paint7_linear_24_153)"/><path d="M213.824 14.2h-14.847V59h14.847V14.2z" fill="url(#paint8_linear_24_153)"/><path d="M327.518 14.2h-34.112V59h14.848V25.912h19.264V14.2z" fill="url(#paint9_linear_24_153)"/><defs><linearGradient id="paint0_linear_24_153" x1="214.5" y1="-3" x2="214.5" y2="75" gradientUnits="userSpaceOnUse"><stop stop-color="#FE8A27"/><stop offset="1" stop-color="#FEF4A2"/></linearGradient><linearGradient id="paint1_linear_24_153" x1="214.5" y1="-3" x2="214.5" y2="75" gradientUnits="userSpaceOnUse"><stop stop-color="#FE8A27"/><stop offset="1" stop-color="#FEF4A2"/></linearGradient><linearGradient id="paint2_linear_24_153" x1="214.5" y1="-3" x2="214.5" y2="75" gradientUnits="userSpaceOnUse"><stop stop-color="#FE8A27"/><stop offset="1" stop-color="#FEF4A2"/></linearGradient><linearGradient id="paint3_linear_24_153" x1="214.5" y1="-3" x2="214.5" y2="75" gradientUnits="userSpaceOnUse"><stop stop-color="#FE8A27"/><stop offset="1" stop-color="#FEF4A2"/></linearGradient><linearGradient id="paint4_linear_24_153" x1="214.5" y1="-3" x2="214.5" y2="75" gradientUnits="userSpaceOnUse"><stop stop-color="#FE8A27"/><stop offset="1" stop-color="#FEF4A2"/></linearGradient><linearGradient id="paint5_linear_24_153" x1="214.5" y1="-3" x2="214.5" y2="75" gradientUnits="userSpaceOnUse"><stop stop-color="#FE8A27"/><stop offset="1" stop-color="#FEF4A2"/></linearGradient><linearGradient id="paint6_linear_24_153" x1="214.5" y1="-3" x2="214.5" y2="75" gradientUnits="userSpaceOnUse"><stop stop-color="#FE8A27"/><stop offset="1" stop-color="#FEF4A2"/></linearGradient><linearGradient id="paint7_linear_24_153" x1="214.5" y1="-3" x2="214.5" y2="75" gradientUnits="userSpaceOnUse"><stop stop-color="#FE8A27"/><stop offset="1" stop-color="#FEF4A2"/></linearGradient><linearGradient id="paint8_linear_24_153" x1="214.5" y1="-3" x2="214.5" y2="75" gradientUnits="userSpaceOnUse"><stop stop-color="#FE8A27"/><stop offset="1" stop-color="#FEF4A2"/></linearGradient><linearGradient id="paint9_linear_24_153" x1="214.5" y1="-3" x2="214.5" y2="75" gradientUnits="userSpaceOnUse"><stop stop-color="#FE8A27"/><stop offset="1" stop-color="#FEF4A2"/></linearGradient></defs></svg>