<svg width="864" height="135" fill="none" xmlns="http://www.w3.org/2000/svg"><path d="M502.825 70.536L472.105 117h-28.544V27.4h29.696v46.592L504.105 27.4h28.416V117h-29.696V70.536z" fill="url(#paint0_linear_27_1805)"/><path d="M487.977 22.28c-10.155 0-17.365-1.877-21.632-5.632-4.181-3.84-6.272-9.301-6.272-16.384h20.096c0 2.816.555 4.907 1.664 6.272 1.195 1.28 3.243 1.92 6.144 1.92 2.987 0 5.077-.64 6.272-1.92 1.195-1.365 1.792-3.456 1.792-6.272h20.096c0 7.083-2.176 12.544-6.528 16.384-4.267 3.755-11.477 5.632-21.632 5.632z" fill="url(#paint1_linear_27_1805)"/><path fill-rule="evenodd" clip-rule="evenodd" d="M129.78 115.592c6.229 2.304 12.971 3.456 20.224 3.456 7.339 0 14.08-1.152 20.224-3.456 6.144-2.304 11.477-5.547 16-9.728a44.894 44.894 0 0010.496-14.976c2.56-5.717 3.84-11.947 3.84-18.688 0-6.827-1.28-13.056-3.84-18.688-2.475-5.717-5.973-10.667-10.496-14.848-4.523-4.267-9.856-7.552-16-9.856-6.144-2.304-12.885-3.456-20.224-3.456-7.253 0-13.995 1.152-20.224 3.456-6.144 2.304-11.477 5.59-16 9.856-4.523 4.181-8.064 9.13-10.624 14.848-2.475 5.632-3.712 11.861-3.712 18.688 0 6.741 1.237 12.97 3.712 18.688 2.56 5.717 6.101 10.709 10.624 14.976 4.523 4.181 9.856 7.424 16 9.728zm28.032-22.528c-2.389 1.024-4.992 1.536-7.808 1.536s-5.461-.512-7.936-1.536a20.28 20.28 0 01-6.4-4.352c-1.792-1.963-3.2-4.31-4.224-7.04-1.024-2.816-1.536-5.973-1.536-9.472 0-3.499.512-6.613 1.536-9.344 1.024-2.816 2.432-5.163 4.224-7.04 1.877-1.963 4.011-3.456 6.4-4.48 2.475-1.024 5.12-1.536 7.936-1.536s5.419.512 7.808 1.536a17.746 17.746 0 016.4 4.48c1.877 1.877 3.328 4.224 4.352 7.04 1.024 2.73 1.536 5.845 1.536 9.344 0 3.499-.512 6.656-1.536 9.472-1.024 2.73-2.475 5.077-4.352 7.04-1.792 1.877-3.925 3.328-6.4 4.352z" fill="url(#paint2_linear_27_1805)"/><path fill-rule="evenodd" clip-rule="evenodd" d="M286.316 109.96c-6.315 4.693-15.317 7.04-27.008 7.04h-47.872V27.4h45.44c11.093 0 19.669 2.048 25.728 6.144 6.144 4.096 9.216 9.856 9.216 17.28 0 7.253-2.816 13.013-8.448 17.28a26.777 26.777 0 01-3.042 1.951c2.508.905 4.76 2.046 6.754 3.425 5.803 4.01 8.704 9.856 8.704 17.536 0 7.936-3.157 14.251-9.472 18.944zm-22.912-26.368c-1.195-1.195-3.029-1.792-5.504-1.792h-16.768v14.08H257.9c2.475 0 4.309-.597 5.504-1.792 1.28-1.28 1.92-3.072 1.92-5.376 0-2.304-.64-4.01-1.92-5.12zm-3.84-33.28c-1.195-1.195-3.072-1.792-5.632-1.792h-12.8v13.312h12.8c2.56 0 4.437-.555 5.632-1.664 1.195-1.11 1.792-2.73 1.792-4.864 0-2.219-.597-3.883-1.792-4.992z" fill="url(#paint3_linear_27_1805)"/><path fill-rule="evenodd" clip-rule="evenodd" d="M380.417 62.344c-6.144-4.95-14.677-7.424-25.6-7.424h-18.56V27.4h-29.696V117h44.416c11.861 0 21.291-2.731 28.288-8.192 6.997-5.547 10.496-13.653 10.496-24.32 0-9.899-3.115-17.28-9.344-22.144zm-24.064 30.72c-1.963 1.877-4.437 2.816-7.424 2.816h-12.672V76.04h12.672c2.987 0 5.461.64 7.424 1.92 2.048 1.28 3.072 3.627 3.072 7.04 0 3.413-1.024 6.101-3.072 8.064z" fill="url(#paint4_linear_27_1805)"/><path fill-rule="evenodd" clip-rule="evenodd" d="M704.129 119.048c-7.253 0-13.995-1.152-20.224-3.456-6.144-2.304-11.477-5.547-16-9.728-4.523-4.267-8.064-9.259-10.624-14.976-2.475-5.717-3.712-11.947-3.712-18.688 0-6.827 1.237-13.056 3.712-18.688 2.56-5.717 6.101-10.667 10.624-14.848 4.523-4.267 9.856-7.552 16-9.856 6.229-2.304 12.971-3.456 20.224-3.456 7.339 0 14.08 1.152 20.224 3.456 6.144 2.304 11.477 5.59 16 9.856 4.523 4.181 8.021 9.13 10.496 14.848 2.56 5.632 3.84 11.861 3.84 18.688 0 6.741-1.28 12.97-3.84 18.688a44.894 44.894 0 01-10.496 14.976c-4.523 4.181-9.856 7.424-16 9.728-6.144 2.304-12.885 3.456-20.224 3.456zm0-24.448c2.816 0 5.419-.512 7.808-1.536 2.475-1.024 4.608-2.475 6.4-4.352 1.877-1.963 3.328-4.31 4.352-7.04 1.024-2.816 1.536-5.973 1.536-9.472 0-3.499-.512-6.613-1.536-9.344-1.024-2.816-2.475-5.163-4.352-7.04a17.746 17.746 0 00-6.4-4.48c-2.389-1.024-4.992-1.536-7.808-1.536s-5.461.512-7.936 1.536c-2.389 1.024-4.523 2.517-6.4 4.48-1.792 1.877-3.2 4.224-4.224 7.04-1.024 2.73-1.536 5.845-1.536 9.344 0 3.499.512 6.656 1.536 9.472 1.024 2.73 2.432 5.077 4.224 7.04a20.28 20.28 0 006.4 4.352c2.475 1.024 5.12 1.536 7.936 1.536z" fill="url(#paint5_linear_27_1805)"/><path fill-rule="evenodd" clip-rule="evenodd" d="M774.965 54.664l1.024-27.264h75.776v66.176h11.776v40.96h-27.648V117h-50.944v17.536h-27.648v-40.96h2.56c2.816 0 5.12-.939 6.912-2.816 1.877-1.963 3.371-4.65 4.48-8.064 1.109-3.499 1.92-7.595 2.432-12.288.597-4.779 1.024-10.027 1.28-15.744zm20.864 36.096a25.587 25.587 0 01-1.424 2.816h27.664V50.824h-20.608l-.256 6.4c-.171 4.693-.469 9.088-.896 13.184-.427 4.096-1.024 7.85-1.792 11.264-.683 3.413-1.579 6.443-2.688 9.088z" fill="url(#paint6_linear_27_1805)"/><path d="M88.506 27.4H58.298v31.744H30.394V27.4H.186V117h30.208V83.976h27.904V117h30.208V27.4z" fill="url(#paint7_linear_27_1805)"/><path d="M427.649 27.4h-29.696V117h29.696V27.4z" fill="url(#paint8_linear_27_1805)"/><path d="M655.035 27.4h-68.224V117h29.696V50.824h38.528V27.4z" fill="url(#paint9_linear_27_1805)"/><defs><linearGradient id="paint0_linear_27_1805" x1="431.864" y1=".264" x2="431.864" y2="134.536" gradientUnits="userSpaceOnUse"><stop stop-color="#00F780"/><stop offset="1" stop-color="#C5E3FF" stop-opacity=".04"/></linearGradient><linearGradient id="paint1_linear_27_1805" x1="431.864" y1=".264" x2="431.864" y2="134.536" gradientUnits="userSpaceOnUse"><stop stop-color="#00F780"/><stop offset="1" stop-color="#C5E3FF" stop-opacity=".04"/></linearGradient><linearGradient id="paint2_linear_27_1805" x1="431.864" y1=".264" x2="431.864" y2="134.536" gradientUnits="userSpaceOnUse"><stop stop-color="#00F780"/><stop offset="1" stop-color="#C5E3FF" stop-opacity=".04"/></linearGradient><linearGradient id="paint3_linear_27_1805" x1="431.864" y1=".264" x2="431.864" y2="134.536" gradientUnits="userSpaceOnUse"><stop stop-color="#00F780"/><stop offset="1" stop-color="#C5E3FF" stop-opacity=".04"/></linearGradient><linearGradient id="paint4_linear_27_1805" x1="431.864" y1=".264" x2="431.864" y2="134.536" gradientUnits="userSpaceOnUse"><stop stop-color="#00F780"/><stop offset="1" stop-color="#C5E3FF" stop-opacity=".04"/></linearGradient><linearGradient id="paint5_linear_27_1805" x1="431.864" y1=".264" x2="431.864" y2="134.536" gradientUnits="userSpaceOnUse"><stop stop-color="#00F780"/><stop offset="1" stop-color="#C5E3FF" stop-opacity=".04"/></linearGradient><linearGradient id="paint6_linear_27_1805" x1="431.864" y1=".264" x2="431.864" y2="134.536" gradientUnits="userSpaceOnUse"><stop stop-color="#00F780"/><stop offset="1" stop-color="#C5E3FF" stop-opacity=".04"/></linearGradient><linearGradient id="paint7_linear_27_1805" x1="431.864" y1=".264" x2="431.864" y2="134.536" gradientUnits="userSpaceOnUse"><stop stop-color="#00F780"/><stop offset="1" stop-color="#C5E3FF" stop-opacity=".04"/></linearGradient><linearGradient id="paint8_linear_27_1805" x1="431.864" y1=".264" x2="431.864" y2="134.536" gradientUnits="userSpaceOnUse"><stop stop-color="#00F780"/><stop offset="1" stop-color="#C5E3FF" stop-opacity=".04"/></linearGradient><linearGradient id="paint9_linear_27_1805" x1="431.864" y1=".264" x2="431.864" y2="134.536" gradientUnits="userSpaceOnUse"><stop stop-color="#00F780"/><stop offset="1" stop-color="#C5E3FF" stop-opacity=".04"/></linearGradient></defs></svg>