<svg width="20" height="19" fill="none" xmlns="http://www.w3.org/2000/svg"><path d="M6.061 12.984l2.732-.161.006.001.01-.002 6.03-.354c.899-.054 1.826-.765 2.11-1.62l2.022-6.062a.6.6 0 00-.57-.79H4.683c-.257-.682-.763-1.41-1.285-1.801l-1.44-1.08a.6.6 0 10-.72.96l1.44 1.08c.406.305.868 1.037.967 1.535l1.502 7.51-.548.55c-.348.347-.6.957-.6 1.449v.6a.6.6 0 00.6.6H16.6a.6.6 0 000-1.2H5.198c0-.171.128-.48.248-.6l.615-.615zM16.37 8.797H13.6v-1.2h3.169l-.4 1.2zm-3.97 0h-3v-1.2h3v1.2zm0 1.2v1.412l-3 .176V9.997h3zm-6.95-2.4H8.2v1.2H5.69l-.24-1.2zm3.95-1.2V5.195h3v1.2h-3zm-1.2 0H5.21l-.24-1.201H8.2v1.2zm0 3.6v1.659l-1.915.112-.354-1.77H8.2zm6.569 1.273l-1.168.068v-1.34h2.369l-.158.471c-.131.395-.629.776-1.043.8zm2.401-4.874H13.6v-1.2h3.97l-.4 1.2zM13.6 17.2c0 .992.808 1.8 1.8 1.8.994 0 1.801-.808 1.801-1.8 0-.993-.807-1.801-1.8-1.801s-1.8.808-1.8 1.8zm1.8-.6a.6.6 0 110 1.201.6.6 0 010-1.202zm-11.403.6c0 .992.808 1.8 1.8 1.8.994 0 1.801-.808 1.801-1.8 0-.993-.807-1.801-1.8-1.801s-1.8.808-1.8 1.8zm1.8-.6a.601.601 0 110 1.201.601.601 0 010-1.202z" fill="#BCFFFB"/></svg>