<svg width="42" height="85" viewBox="0 0 42 85" fill="none" xmlns="http://www.w3.org/2000/svg">
<path d="M36.208 3.83509L36.2188 3.80298C36.7272 2.30072 35.9313 0.667305 34.4409 0.15475C32.9506 -0.357816 31.3301 0.44452 30.8217 1.94682L33.5202 2.8749C30.8217 1.94682 30.8212 1.94811 30.8212 1.94811L30.807 1.99023L30.7675 2.10811C30.7332 2.21112 30.6828 2.36259 30.6179 2.56013C30.4879 2.9552 30.2993 3.53462 30.0622 4.27924C29.5881 5.76834 28.9198 7.91909 28.1388 10.5783C26.5778 15.8937 24.5627 23.2549 22.749 31.4323C20.9369 39.6023 19.3154 48.6339 18.5572 57.2798C18.0829 62.6885 17.9384 68.0284 18.3251 72.9554C17.7803 72.2653 17.2129 71.5529 16.6306 70.8301C14.6042 68.3149 12.3789 65.6505 10.2881 63.3548C8.24816 61.115 6.17015 59.0387 4.46319 57.8598C3.16413 56.9626 1.38949 57.2968 0.499421 58.6063C-0.390651 59.9157 -0.0591012 61.7046 1.23996 62.6018C2.35864 63.3744 4.05505 65.0108 6.08729 67.2422C8.06872 69.4178 10.2133 71.9831 12.2038 74.4538C14.1907 76.9201 16.0054 79.2689 17.3245 81.0026C17.9835 81.8689 18.5177 82.5801 18.8863 83.0737C19.0706 83.3205 19.2135 83.5128 19.3099 83.6429C19.3581 83.7079 19.3946 83.7574 19.4189 83.7902L19.4544 83.8383C20.0568 84.6568 21.0442 85.0925 22.0494 84.9835C23.0546 84.8744 23.9275 84.2367 24.3433 83.3078L24.3483 83.2968L24.3666 83.2561C24.3832 83.2193 24.4085 83.1634 24.4423 83.0893C24.5097 82.9411 24.6108 82.7204 24.7429 82.4355C25.0071 81.8656 25.3953 81.0395 25.8869 80.0236C26.871 77.99 28.2652 75.2052 29.9061 72.1976C33.256 66.0579 37.4075 59.4216 41.0611 56.0912C42.2291 55.0266 42.3197 53.2091 41.2635 52.0317C40.2073 50.8544 38.4042 50.7631 37.2362 51.8277C32.7865 55.8838 28.2358 63.3308 24.9093 69.4276C24.5704 70.0488 24.2418 70.6605 23.9249 71.2583C23.6841 67.1187 23.8189 62.5618 24.2377 57.7859C24.9663 49.4776 26.5343 40.7115 28.3142 32.6865C30.0924 24.669 32.0715 17.438 33.6069 12.2099C34.3741 9.59727 35.0295 7.48844 35.492 6.03589C35.7232 5.3097 35.9062 4.74779 36.0307 4.36922C36.0929 4.17995 36.1406 4.03653 36.1724 3.94136L36.208 3.83509Z" fill="url(#paint0_linear_24_165)"/>
<defs>
<linearGradient id="paint0_linear_24_165" x1="20.8607" y1="-4.59837" x2="20.8607" y2="94.1564" gradientUnits="userSpaceOnUse">
<stop stop-color="#FE8A27"/>
<stop offset="1" stop-color="#FEF4A2"/>
</linearGradient>
</defs>
</svg>
