<svg width="432" height="68" viewBox="0 0 432 68" fill="none" xmlns="http://www.w3.org/2000/svg">
<path d="M251.413 35.768L236.053 59H221.781V14.2H236.628V37.496L252.052 14.2H266.261V59H251.413V35.768Z" fill="url(#paint0_linear_24_153)"/>
<path d="M243.988 11.64C238.911 11.64 235.306 10.7013 233.173 8.82396C231.082 6.90396 230.036 4.17329 230.036 0.631958H240.085C240.085 2.03996 240.362 3.08529 240.917 3.76796C241.514 4.40796 242.538 4.72796 243.988 4.72796C245.482 4.72796 246.527 4.40796 247.124 3.76796C247.722 3.08529 248.021 2.03996 248.021 0.631958H258.069C258.069 4.17329 256.981 6.90396 254.805 8.82396C252.671 10.7013 249.066 11.64 243.988 11.64Z" fill="url(#paint1_linear_24_153)"/>
<path fill-rule="evenodd" clip-rule="evenodd" d="M64.89 58.296C68.0047 59.448 71.3753 60.024 75.002 60.024C78.6713 60.024 82.042 59.448 85.114 58.296C88.186 57.144 90.8527 55.5226 93.114 53.432C95.3753 51.2986 97.1247 48.8026 98.362 45.944C99.642 43.0853 100.282 39.9706 100.282 36.6C100.282 33.1866 99.642 30.072 98.362 27.256C97.1247 24.3973 95.3753 21.9226 93.114 19.832C90.8527 17.6986 88.186 16.056 85.114 14.904C82.042 13.752 78.6713 13.176 75.002 13.176C71.3753 13.176 68.0047 13.752 64.89 14.904C61.818 16.056 59.1513 17.6986 56.89 19.832C54.6287 21.9226 52.858 24.3973 51.578 27.256C50.3407 30.072 49.722 33.1866 49.722 36.6C49.722 39.9706 50.3407 43.0853 51.578 45.944C52.858 48.8026 54.6287 51.2986 56.89 53.432C59.1513 55.5226 61.818 57.144 64.89 58.296ZM78.906 47.032C77.7113 47.544 76.41 47.8 75.002 47.8C73.594 47.8 72.2713 47.544 71.034 47.032C69.8393 46.52 68.7727 45.7946 67.834 44.856C66.938 43.8746 66.234 42.7013 65.722 41.336C65.21 39.928 64.954 38.3493 64.954 36.6C64.954 34.8506 65.21 33.2933 65.722 31.928C66.234 30.52 66.938 29.3466 67.834 28.408C68.7727 27.4266 69.8393 26.68 71.034 26.168C72.2713 25.656 73.594 25.4 75.002 25.4C76.41 25.4 77.7113 25.656 78.906 26.168C80.1433 26.68 81.21 27.4266 82.106 28.408C83.0447 29.3466 83.77 30.52 84.282 31.928C84.794 33.2933 85.05 34.8506 85.05 36.6C85.05 38.3493 84.794 39.928 84.282 41.336C83.77 42.7013 83.0447 43.8746 82.106 44.856C81.21 45.7946 80.1433 46.52 78.906 47.032Z" fill="url(#paint2_linear_24_153)"/>
<path fill-rule="evenodd" clip-rule="evenodd" d="M143.158 55.48C140.001 57.8266 135.499 59 129.654 59H105.718V14.2H128.438C133.985 14.2 138.273 15.224 141.302 17.272C144.374 19.32 145.91 22.2 145.91 25.912C145.91 29.5386 144.502 32.4186 141.686 34.552C141.207 34.9074 140.7 35.2326 140.165 35.5276C141.419 35.9799 142.545 36.5507 143.542 37.24C146.443 39.2453 147.894 42.168 147.894 46.008C147.894 49.976 146.315 53.1333 143.158 55.48ZM131.702 42.296C131.105 41.6986 130.187 41.4 128.95 41.4H120.566V48.44H128.95C130.187 48.44 131.105 48.1413 131.702 47.544C132.342 46.904 132.662 46.008 132.662 44.856C132.662 43.704 132.342 42.8506 131.702 42.296ZM129.782 25.656C129.185 25.0586 128.246 24.76 126.966 24.76H120.566V31.416H126.966C128.246 31.416 129.185 31.1386 129.782 30.584C130.379 30.0293 130.678 29.2186 130.678 28.152C130.678 27.0426 130.379 26.2106 129.782 25.656Z" fill="url(#paint3_linear_24_153)"/>
<path fill-rule="evenodd" clip-rule="evenodd" d="M190.208 31.672C187.136 29.1973 182.87 27.96 177.409 27.96H168.128V14.2H153.281V59H175.488C181.419 59 186.134 57.6346 189.633 54.904C193.131 52.1306 194.88 48.0773 194.88 42.744C194.88 37.7946 193.323 34.104 190.208 31.672ZM178.176 47.032C177.195 47.9706 175.958 48.44 174.465 48.44H168.128V38.52H174.465C175.958 38.52 177.195 38.84 178.176 39.48C179.201 40.12 179.712 41.2933 179.712 43C179.712 44.7066 179.201 46.0506 178.176 47.032Z" fill="url(#paint4_linear_24_153)"/>
<path fill-rule="evenodd" clip-rule="evenodd" d="M352.065 60.024C348.438 60.024 345.067 59.448 341.953 58.296C338.881 57.144 336.214 55.5226 333.953 53.432C331.691 51.2986 329.921 48.8026 328.641 45.944C327.403 43.0853 326.785 39.9706 326.785 36.6C326.785 33.1866 327.403 30.072 328.641 27.256C329.921 24.3973 331.691 21.9226 333.953 19.832C336.214 17.6986 338.881 16.056 341.953 14.904C345.067 13.752 348.438 13.176 352.065 13.176C355.734 13.176 359.105 13.752 362.177 14.904C365.249 16.056 367.915 17.6986 370.177 19.832C372.438 21.9226 374.187 24.3973 375.425 27.256C376.705 30.072 377.345 33.1866 377.345 36.6C377.345 39.9706 376.705 43.0853 375.425 45.944C374.187 48.8026 372.438 51.2986 370.177 53.432C367.915 55.5226 365.249 57.144 362.177 58.296C359.105 59.448 355.734 60.024 352.065 60.024ZM352.065 47.8C353.473 47.8 354.774 47.544 355.969 47.032C357.206 46.52 358.273 45.7946 359.169 44.856C360.107 43.8746 360.833 42.7013 361.345 41.336C361.857 39.928 362.113 38.3493 362.113 36.6C362.113 34.8506 361.857 33.2933 361.345 31.928C360.833 30.52 360.107 29.3466 359.169 28.408C358.273 27.4266 357.206 26.68 355.969 26.168C354.774 25.656 353.473 25.4 352.065 25.4C350.657 25.4 349.334 25.656 348.097 26.168C346.902 26.68 345.835 27.4266 344.897 28.408C344.001 29.3466 343.296 30.52 342.785 31.928C342.273 33.2933 342.017 34.8506 342.017 36.6C342.017 38.3493 342.273 39.928 342.785 41.336C343.296 42.7013 344.001 43.8746 344.897 44.856C345.835 45.7946 346.902 46.52 348.097 47.032C349.334 47.544 350.657 47.8 352.065 47.8Z" fill="url(#paint5_linear_24_153)"/>
<path fill-rule="evenodd" clip-rule="evenodd" d="M387.483 27.832L387.995 14.2H425.883V47.288H431.771V67.768H417.947V59H392.475V67.768H378.651V47.288H379.931C381.339 47.288 382.491 46.8186 383.387 45.88C384.325 44.8986 385.072 43.5546 385.627 41.848C386.181 40.0986 386.587 38.0506 386.843 35.704C387.141 33.3146 387.355 30.6906 387.483 27.832ZM397.915 45.88C397.697 46.3821 397.46 46.8515 397.203 47.288H411.035V25.912H400.731L400.603 29.112C400.517 31.4586 400.368 33.656 400.155 35.704C399.941 37.752 399.643 39.6293 399.259 41.336C398.917 43.0426 398.469 44.5573 397.915 45.88Z" fill="url(#paint6_linear_24_153)"/>
<path d="M44.253 14.2H29.149V30.072H15.197V14.2H0.0930023V59H15.197V42.488H29.149V59H44.253V14.2Z" fill="url(#paint7_linear_24_153)"/>
<path d="M213.824 14.2H198.977V59H213.824V14.2Z" fill="url(#paint8_linear_24_153)"/>
<path d="M327.518 14.2H293.406V59H308.254V25.912H327.518V14.2Z" fill="url(#paint9_linear_24_153)"/>
<defs>
<linearGradient id="paint0_linear_24_153" x1="214.5" y1="-3" x2="214.5" y2="75" gradientUnits="userSpaceOnUse">
<stop stop-color="#FE8A27"/>
<stop offset="1" stop-color="#FEF4A2"/>
</linearGradient>
<linearGradient id="paint1_linear_24_153" x1="214.5" y1="-3" x2="214.5" y2="75" gradientUnits="userSpaceOnUse">
<stop stop-color="#FE8A27"/>
<stop offset="1" stop-color="#FEF4A2"/>
</linearGradient>
<linearGradient id="paint2_linear_24_153" x1="214.5" y1="-3" x2="214.5" y2="75" gradientUnits="userSpaceOnUse">
<stop stop-color="#FE8A27"/>
<stop offset="1" stop-color="#FEF4A2"/>
</linearGradient>
<linearGradient id="paint3_linear_24_153" x1="214.5" y1="-3" x2="214.5" y2="75" gradientUnits="userSpaceOnUse">
<stop stop-color="#FE8A27"/>
<stop offset="1" stop-color="#FEF4A2"/>
</linearGradient>
<linearGradient id="paint4_linear_24_153" x1="214.5" y1="-3" x2="214.5" y2="75" gradientUnits="userSpaceOnUse">
<stop stop-color="#FE8A27"/>
<stop offset="1" stop-color="#FEF4A2"/>
</linearGradient>
<linearGradient id="paint5_linear_24_153" x1="214.5" y1="-3" x2="214.5" y2="75" gradientUnits="userSpaceOnUse">
<stop stop-color="#FE8A27"/>
<stop offset="1" stop-color="#FEF4A2"/>
</linearGradient>
<linearGradient id="paint6_linear_24_153" x1="214.5" y1="-3" x2="214.5" y2="75" gradientUnits="userSpaceOnUse">
<stop stop-color="#FE8A27"/>
<stop offset="1" stop-color="#FEF4A2"/>
</linearGradient>
<linearGradient id="paint7_linear_24_153" x1="214.5" y1="-3" x2="214.5" y2="75" gradientUnits="userSpaceOnUse">
<stop stop-color="#FE8A27"/>
<stop offset="1" stop-color="#FEF4A2"/>
</linearGradient>
<linearGradient id="paint8_linear_24_153" x1="214.5" y1="-3" x2="214.5" y2="75" gradientUnits="userSpaceOnUse">
<stop stop-color="#FE8A27"/>
<stop offset="1" stop-color="#FEF4A2"/>
</linearGradient>
<linearGradient id="paint9_linear_24_153" x1="214.5" y1="-3" x2="214.5" y2="75" gradientUnits="userSpaceOnUse">
<stop stop-color="#FE8A27"/>
<stop offset="1" stop-color="#FEF4A2"/>
</linearGradient>
</defs>
</svg>
