<svg width="20" height="19" viewBox="0 0 20 19" fill="none" xmlns="http://www.w3.org/2000/svg">
<path d="M6.0611 12.9836L8.79297 12.823C8.79502 12.823 8.79678 12.8241 8.79883 12.8241C8.80264 12.8241 8.80557 12.8221 8.80938 12.8221L14.8381 12.4675C15.7375 12.4144 16.665 11.7032 16.9499 10.8489L18.9711 4.7856C19.0321 4.60244 19.0013 4.4014 18.8885 4.24491C18.7759 4.08812 18.5945 3.99552 18.4017 3.99552H4.68227C4.42496 3.31416 3.91856 2.58621 3.39722 2.19498L1.95684 1.11477C1.69104 0.9152 1.31534 0.969709 1.11665 1.23463C0.917666 1.49985 0.971295 1.87613 1.23651 2.07482L2.67688 3.15503C3.08335 3.4601 3.54462 4.19186 3.64426 4.69006L5.14647 12.2008L4.59757 12.7497C4.24972 13.0973 3.99739 13.7068 3.99739 14.1986V14.7987C3.99739 15.1302 4.26613 15.3989 4.59757 15.3989H5.79793H15.4008H16.6012C16.9326 15.3989 17.2013 15.1302 17.2013 14.7987C17.2013 14.4673 16.9326 14.1986 16.6012 14.1986H5.19775C5.19775 14.0277 5.32553 13.7191 5.44627 13.5984L6.0611 12.9836ZM16.3685 8.79695H13.6003V7.59659H16.7688L16.3685 8.79695ZM12.3999 8.79695H9.39901V7.59659H12.3999V8.79695ZM12.3999 9.99731V11.4087L9.39901 11.5851V9.99731H12.3999ZM5.44978 7.59659H8.19865V8.79695H5.6898L5.44978 7.59659ZM9.39901 6.39623V5.19587H12.3999V6.39623H9.39901ZM8.19865 6.39623H5.20948L4.96946 5.19587H8.19865V6.39623ZM8.19865 9.99731V11.6557L6.28411 11.7682L5.92981 9.99731H8.19865ZM14.7675 11.2695L13.6003 11.338V9.99731H15.9685L15.8111 10.4694C15.6798 10.8636 15.1822 11.2448 14.7675 11.2695ZM17.1691 6.39623H13.6003V5.19587H17.5691L17.1691 6.39623ZM13.6003 17.1995C13.6003 18.1923 14.4079 19 15.4008 19C16.3937 19 17.2013 18.1923 17.2013 17.1995C17.2013 16.2066 16.3937 15.3989 15.4008 15.3989C14.4079 15.3989 13.6003 16.2066 13.6003 17.1995ZM15.4008 16.5993C15.7317 16.5993 16.001 16.8686 16.001 17.1995C16.001 17.5303 15.7317 17.7996 15.4008 17.7996C15.0699 17.7996 14.8006 17.5303 14.8006 17.1995C14.8006 16.8686 15.0699 16.5993 15.4008 16.5993ZM3.99739 17.1995C3.99739 18.1923 4.80506 19 5.79793 19C6.79081 19 7.59847 18.1923 7.59847 17.1995C7.59847 16.2066 6.79081 15.3989 5.79793 15.3989C4.80506 15.3989 3.99739 16.2066 3.99739 17.1995ZM5.79793 16.5993C6.12879 16.5993 6.39811 16.8686 6.39811 17.1995C6.39811 17.5303 6.12879 17.7996 5.79793 17.7996C5.46707 17.7996 5.19775 17.5303 5.19775 17.1995C5.19775 16.8686 5.46707 16.5993 5.79793 16.5993Z" fill="#BCFFFB"/>
</svg>
